<?xml version="1.0" encoding="utf-8"?>
<svg width="285px" height="124px" viewBox="0 0 285 124" version="1.1" xmlns:xlink="http://www.w3.org/1999/xlink" xmlns="http://www.w3.org/2000/svg">
  <desc>Created with Lunacy</desc>
  <g id="签到查询-Symbol-instance">
    <path d="M0 0L285 0L285 124L0 124L0 0Z" id="Rectangle" fill="#416FCE" stroke="none" />
    <g id="icons8_document" transform="translate(117 28)">
      <path d="M0 0L50 0L50 50L0 50L0 0Z" id="Background" fill="none" stroke="none" />
      <path d="M0 0L0 46L36 46L36 12.5938L35.7188 12.2813L23.7188 0.28125L23.4063 0L0 0ZM22 2L2 2L2 44L34 44L34 14L22 14L22 2ZM24 3.4375L32.5625 12L24 12L24 3.4375ZM8 22L8 20L28 20L28 22L8 22ZM8 26L8 28L24 28L24 26L8 26ZM8 34L8 32L28 32L28 34L8 34Z" transform="translate(7 2)" id="Shape" fill="#FFFFFF" fill-rule="evenodd" stroke="none" />
    </g>
    <g id="签到查询" fill="#FFFFFF" transform="translate(104 90.00003)">
      <path d="M65.5908 3.2561Q64.0508 6.78149 61.75 9.45337Q62.5107 9.91724 62.9561 10.2883Q64.1343 8.85962 65.2383 7.04126L73.5508 7.04126Q73.4209 13.5354 73.2354 17.7102Q73.1055 19.8625 71.4355 19.8625Q70.0996 19.8625 68.4482 19.6028Q68.6523 20.4934 68.7637 21.2356Q70.0996 21.3284 71.7881 21.3284Q74.5342 21.3284 74.6826 17.9885Q74.8311 14.1848 75.0537 5.70532L66.0083 5.70532Q66.5093 4.79614 67.001 3.79419L65.5908 3.2561ZM38.9092 5.35278L46.832 5.35278L46.832 3.36743L48.1494 3.36743L48.1494 5.35278L56.1836 5.35278L56.1836 6.59595L49.3091 6.59595Q52.2407 8.83179 56.7217 9.9729Q56.2393 10.6965 55.8682 11.2903Q54.8662 10.947 53.9385 10.5481L53.9385 18.6008L52.5283 18.6008L52.5283 17.7659L42.5273 17.7659L42.5273 18.6194L41.1172 18.6194L41.1172 10.6409Q40.1709 11.0769 39.1318 11.4758Q38.7422 10.9006 38.2598 10.2883Q43.0469 8.77612 45.5981 6.59595L38.9092 6.59595L38.9092 5.35278ZM5.43652 3.38599L3.84082 3.38599Q2.39355 6.37329 0.222656 8.41431Q0.760742 8.97095 1.16895 9.50903Q2.52344 8.21021 3.72949 6.39185L9.87109 6.39185L9.87109 5.14868L4.49023 5.14868Q4.97266 4.31372 5.43652 3.38599ZM13.4707 3.38599L11.9307 3.38599Q11.0029 5.53833 9.62988 7.07837Q10.2793 7.35669 10.9658 7.74634Q11.3926 7.17114 11.8936 6.39185L18.5547 6.39185L18.5547 5.14868L12.6172 5.14868Q13.0625 4.31372 13.4707 3.38599ZM36.9238 3.38599L35.3838 3.38599L35.3838 18.6565Q35.3838 19.2967 35.0643 19.5972Q34.7726 19.8714 34.2148 19.8625Q33.3242 19.8625 31.6914 19.7141Q31.8584 20.6233 31.9697 21.384Q33.918 21.4026 34.6787 21.4026Q36.9238 21.4026 36.9238 19.0833L36.9238 3.38599ZM62.084 6.80005Q61.1748 5.7981 59.1523 3.71997L58.0576 4.66626Q59.6533 6.31763 60.8223 7.85767L62.084 6.80005ZM30.2627 11.5129Q28.9639 9.13794 27.4795 6.94849L26.2178 7.57935Q26.8857 8.59058 27.498 9.65747Q24.7612 9.94507 22.1172 10.1399Q23.5366 8.21948 24.9189 5.87231L30.3555 5.87231L30.3555 4.49927L19.7051 4.49927L19.7051 5.87231L23.1655 5.87231Q22.479 7.20825 21.7646 8.28442Q20.9854 9.54614 19.9092 10.1213L20.5771 11.6614Q24.1675 11.2903 28.166 10.9006Q28.5093 11.5686 28.834 12.2551Q29.5576 11.8469 30.2627 11.5129ZM32.8604 5.38989L31.3574 5.38989L31.3574 17.2092L32.8604 17.2092L32.8604 5.38989ZM4.1377 7.61646Q4.93555 8.54419 5.71484 9.5647L6.80957 8.69263Q5.9375 7.69067 5.10254 6.89282L4.1377 7.61646ZM46.832 10.0842L46.832 6.9021Q44.6982 8.96167 41.3213 10.5481L53.9292 10.5481Q50.5059 9.09155 48.1494 6.93921L48.1494 10.0842L46.832 10.0842ZM12.8584 7.76489Q14.1201 8.89673 14.9365 9.82446L15.9199 8.87817Q14.9922 7.95044 13.749 6.91138L12.8584 7.76489ZM10.4834 8.21021L10.8174 7.802L8.99902 7.802Q5.51074 11.2346 0.185547 13.3313Q0.649414 13.8694 1.11328 14.6116Q3.30273 13.6096 5.17676 12.4778L5.17676 13.554L13.8418 13.554L13.8418 12.5706Q15.6602 13.6467 17.7568 14.3704Q18.1836 13.6653 18.7588 12.886Q13.7861 11.6243 10.4834 8.21021ZM5.45508 12.2922Q7.77441 10.845 9.55566 9.17505Q11.2627 10.9749 13.3779 12.2922L5.45508 12.2922ZM70.8604 9.23071L64.0693 9.23071L64.0693 18.7864L65.4053 18.7864L65.4053 17.6917L70.8604 17.6917L70.8604 9.23071ZM63.1602 18.8606Q63.0859 18.2297 63.0303 17.2649Q61.9541 18.0442 60.8965 18.7493L60.8965 9.78735L57.2969 9.78735L57.2969 11.1233L59.4678 11.1233L59.4678 18.4895Q59.4678 19.5471 58.8369 20.0852L59.709 21.3284Q60.8037 20.4006 63.1602 18.8606ZM65.4053 10.4924L69.5244 10.4924L69.5244 12.8118L65.4053 12.8118L65.4053 10.4924ZM24.1953 14.0364L19.835 14.0364L19.835 15.4094L24.1953 15.4094L24.1953 18.8513Q21.644 19.1575 19.2783 19.3987L19.7051 20.9573Q25.0117 20.178 30.2627 19.5286Q30.1885 18.7307 30.1885 18.0813Q27.8691 18.3967 25.6797 18.675L25.6797 15.4094L29.9287 15.4094L29.9287 14.0364L25.6797 14.0364L25.6797 11.7356L24.1953 11.7356L24.1953 14.0364ZM52.5283 11.8284L42.5273 11.8284L42.5273 13.5168L52.5283 13.5168L52.5283 11.8284ZM69.5244 14.0364L69.5244 16.4299L65.4053 16.4299L65.4053 14.0364L69.5244 14.0364ZM9.42578 14.1292L8.14551 14.4817Q8.79492 16.3372 9.31445 18.6379L10.6875 18.2297Q10.1494 16.1516 9.42578 14.1292ZM11.9307 19.5286L1.00195 19.5286L1.00195 20.8459L18.0352 20.8459L18.0352 19.5286L13.4336 19.5286Q14.7139 17.4133 15.9941 15.1682L14.584 14.426Q13.5264 16.8567 11.9307 19.5286ZM4.04492 14.7415L2.85742 15.3538Q3.93359 17.1907 4.80566 19.1946L6.06738 18.4895Q5.1582 16.5598 4.04492 14.7415ZM42.5273 16.4856L52.5283 16.4856L52.5283 14.7786L42.5273 14.7786L42.5273 16.4856ZM38.4639 19.6028L56.5361 19.6028L56.5361 20.9387L38.4639 20.9387L38.4639 19.6028Z" />
    </g>
  </g>
</svg>