<?xml version="1.0" encoding="utf-8"?>
<svg width="283px" height="124px" viewBox="0 0 283 124" version="1.1" xmlns:xlink="http://www.w3.org/1999/xlink" xmlns="http://www.w3.org/2000/svg">
  <desc>Created with Lunacy</desc>
  <g id="课程管理-Symbol-instance">
    <path d="M0 0L283 0L283 124L0 124L0 0Z" id="Rectangle-3" fill="#6967CA" stroke="none" />
    <g id="icons8_bookmark_1" transform="translate(113.7 20)">
      <path d="M0 0L50 0L50 50L0 50L0 0Z" transform="translate(0.3000031 0)" id="Background" fill="none" stroke="none" />
      <path d="M0 5C0 2.25 2.25 0 5 0L21 0C22.6328 0 24.0859 0.8125 25 2.03125C25.9141 0.8125 27.3672 0 29 0L45 0C47.75 0 50 2.25 50 5L50 34C50 36.75 47.75 39 45 39L29 39C27.3359 39 26 40.3516 26 42C26.0039 42.1758 25.9609 42.3477 25.875 42.5C25.7383 42.7344 25.5117 42.9023 25.25 42.9688C24.9492 43.0469 24.6328 42.9805 24.3867 42.7891C24.1445 42.6016 24 42.3086 24 42C24 40.3516 22.6641 39 21 39L5 39C2.25 39 0 36.75 0 34L0 5ZM5 2L21 2C22.668 2 24 3.33203 24 5L24 38.125C23.1523 37.4648 22.1484 37 21 37L5 37C3.33203 37 2 35.668 2 34L2 5C2 3.33203 3.33203 2 5 2ZM45 2L29 2C27.332 2 26 3.33203 26 5L26 38.125C26.8477 37.4648 27.8516 37 29 37L45 37C46.668 37 48 35.668 48 34L48 5C48 3.33203 46.668 2 45 2Z" transform="translate(0 4.775085)" id="Shape" fill="#FFFFFF" fill-rule="evenodd" stroke="none" />
    </g>
    <g id="课程管理" fill="#FFFFFF" transform="translate(102 77.00006)">
      <path d="M43.9004 8.69263Q43.1953 7.76489 42.3604 6.80005L43.1953 6.2063L41.5996 6.2063Q40.5327 7.56079 39.2246 8.59985Q38.8535 8.15454 38.2969 7.56079Q40.4678 5.87232 41.8408 3.31177L43.4365 3.31177Q42.9727 4.23022 42.4253 5.05591L47.8711 5.05591L47.8711 6.2063L43.418 6.2063Q44.2529 7.01343 44.9951 7.85767L43.9004 8.69263ZM52.3799 8.67407Q51.7676 7.802 50.877 6.78149L51.6841 6.2063L50.1162 6.2063Q49.5781 7.06909 48.9844 7.802Q48.5762 7.3938 47.8525 6.89282Q49.1514 5.44556 50.0234 3.31177L51.6191 3.31177Q51.2202 4.23022 50.7749 5.05591L56.7031 5.05591L56.7031 6.2063L51.9531 6.2063Q52.7974 7.02271 53.4746 7.83911L52.3799 8.67407ZM5.12109 6.76294Q4.04492 5.427 2.375 3.81274L1.3916 4.68481Q2.67188 6.03931 3.9707 7.70923L5.12109 6.76294ZM21.9502 10.1584Q20.9668 13.823 19.1299 16.5042Q19.4639 17.3206 19.7607 18.1184Q21.2637 15.9846 22.2471 12.7932L22.2471 21.6809L23.583 21.6809L23.583 13.0994Q24.2881 13.9436 25.3643 15.3167L26.4775 14.4075Q25.0488 12.7375 24.3066 11.9768L23.583 12.6077L23.583 10.1584L26.1621 10.1584L26.1621 8.93384L23.583 8.93384L23.583 5.83521Q24.9468 5.61255 26.2363 5.35278L25.8281 4.05396Q22.6182 4.79614 19.4639 5.05591Q19.7051 5.70532 19.8535 6.33618Q21.0781 6.19702 22.2471 6.03003L22.2471 8.93384L19.3525 8.93384L19.3525 10.1584L21.9502 10.1584ZM17.8682 20.5862Q18.3135 19.8997 18.7773 19.1946Q15.3911 17.9236 13.0996 15.0012L18.2578 15.0012L18.2578 13.7766L12.4316 13.7766L12.4316 11.7542L15.8828 11.7542L15.8828 12.3479L17.1816 12.3479L17.1816 4.18384L6.3457 4.18384L6.3457 12.3479L7.64453 12.3479L7.64453 11.7542L11.0957 11.7542L11.0957 13.7766L5.39941 13.7766L5.39941 15.0012L10.4277 15.0012Q8.21045 17.7937 4.78711 19.6213Q5.3252 20.1594 5.86328 20.8459Q8.76709 18.9534 11.0957 15.6506L11.0957 21.6067L12.4316 21.6067L12.4316 15.595Q14.5005 18.8328 17.8682 20.5862ZM36.3672 4.25806L27.1641 4.25806L27.1641 10.6223L28.5742 10.6223L28.5742 9.86157L34.957 9.86157L34.957 10.6223L36.3672 10.6223L36.3672 4.25806ZM68.8379 19.677L63.0303 19.677L63.0303 20.9758L75.7588 20.9758L75.7588 19.677L70.2109 19.677L70.2109 17.0051L74.9424 17.0051L74.9424 15.7063L70.2109 15.7063L70.2109 13.2571L73.1797 13.2571L73.1797 13.9436L74.5527 13.9436L74.5527 4.36938L64.4961 4.36938L64.4961 13.9436L65.8691 13.9436L65.8691 13.2571L68.8379 13.2571L68.8379 15.7063L64.1064 15.7063L64.1064 17.0051L68.8379 17.0051L68.8379 19.677ZM59.8945 17.8958Q58.5586 18.239 57.1299 18.5823L57.6309 20.0852Q60.6738 19.1389 63.8467 18.2854Q63.7354 17.6731 63.6426 16.8381Q62.4922 17.1814 61.2676 17.5247L61.2676 12.2737L63.624 12.2737L63.624 10.9749L61.2676 10.9749L61.2676 6.33618L63.7725 6.33618L63.7725 5.03735L57.3896 5.03735L57.3896 6.33618L59.8945 6.33618L59.8945 10.9749L57.5752 10.9749L57.5752 12.2737L59.8945 12.2737L59.8945 17.8958ZM11.0957 7.3938L7.64453 7.3938L7.64453 5.37134L11.0957 5.37134L11.0957 7.3938ZM12.4316 5.37134L15.8828 5.37134L15.8828 7.3938L12.4316 7.3938L12.4316 5.37134ZM28.5742 5.51978L34.957 5.51978L34.957 8.59985L28.5742 8.59985L28.5742 5.51978ZM68.8379 8.19165L65.8691 8.19165L65.8691 5.6311L68.8379 5.6311L68.8379 8.19165ZM70.2109 5.6311L73.1797 5.6311L73.1797 8.19165L70.2109 8.19165L70.2109 5.6311ZM39.0576 8.7854L46.9897 8.7854Q46.665 8.20093 46.2012 7.48657L47.4814 6.92993Q48.0938 7.82056 48.5947 8.7854L55.9238 8.7854L55.9238 11.6614L54.4951 11.6614L54.4951 9.99146L40.4863 9.99146L40.4863 11.6799L39.0576 11.6799L39.0576 8.7854ZM11.0957 10.5667L7.64453 10.5667L7.64453 8.54419L11.0957 8.54419L11.0957 10.5667ZM15.8828 10.5667L12.4316 10.5667L12.4316 8.54419L15.8828 8.54419L15.8828 10.5667ZM68.8379 11.9954L65.8691 11.9954L65.8691 9.41626L68.8379 9.41626L68.8379 11.9954ZM73.1797 11.9954L70.2109 11.9954L70.2109 9.41626L73.1797 9.41626L73.1797 11.9954ZM3.78516 19.1946Q4.80566 18.1926 6.19727 16.968Q5.99316 16.1702 5.84473 15.3723Q4.69434 16.4856 3.7666 17.302L3.7666 9.58325L0.333984 9.58325L0.333984 10.9377L2.39355 10.9377L2.39355 17.4319Q2.39355 18.4895 1.81836 19.0276L2.85742 20.2336Q3.26563 19.7327 3.78516 19.1946ZM41.1543 11.3645L52.584 11.3645L52.584 15.8362L51.1738 15.8362L51.1738 15.3723L42.583 15.3723L42.583 16.7825L54.1426 16.7825L54.1426 21.6252L52.7324 21.6252L52.7324 20.9202L42.583 20.9202L42.583 21.6438L41.1543 21.6438L41.1543 11.3645ZM30.9863 19.4358L25.6797 19.4358L25.6797 20.679L37.7773 20.679L37.7773 19.4358L32.4707 19.4358L32.4707 16.6897L36.6826 16.6897L36.6826 15.4465L32.4707 15.4465L32.4707 12.9231L37.1465 12.9231L37.1465 11.6799L26.3291 11.6799L26.3291 12.9231L30.9863 12.9231L30.9863 15.4465L26.7744 15.4465L26.7744 16.6897L30.9863 16.6897L30.9863 19.4358ZM51.1738 12.4778L42.583 12.4778L42.583 14.259L51.1738 14.259L51.1738 12.4778ZM52.7324 17.8958L42.583 17.8958L42.583 19.7141L52.7324 19.7141L52.7324 17.8958Z" />
    </g>
  </g>
</svg>