<?xml version="1.0" encoding="utf-8"?>
<svg width="283px" height="124px" viewBox="0 0 283 124" version="1.1" xmlns:xlink="http://www.w3.org/1999/xlink" xmlns="http://www.w3.org/2000/svg">
  <desc>Created with Lunacy</desc>
  <g id="新建签到-Symbol-instance">
    <path d="M0 0L283 0L283 124L0 124L0 0Z" id="Rectangle-2" fill="#3DB9F7" stroke="none" />
    <g id="icons8_plus_6" transform="translate(116 25)">
      <path d="M0 0L50 0L50 50L0 50L0 0Z" id="Background" fill="none" stroke="none" />
      <path d="M0 23C0 10.3093 10.3093 0 23 0C35.6907 0 46 10.3093 46 23C46 35.6907 35.6907 46 23 46C10.3093 46 0 35.6907 0 23ZM23 2C34.6098 2 44 11.3902 44 23C44 34.6098 34.6098 44 23 44C11.3902 44 2 34.6098 2 23C2 11.3902 11.3902 2 23 2ZM22 22L22 11L24 11L24 22L35 22L35 24L24 24L24 35L22 35L22 24L11 24L11 22L22 22Z" transform="translate(2 2)" id="Shape" fill="#FFFFFF" fill-rule="evenodd" stroke="none" />
    </g>
    <g id="新建签到" fill="#FFFFFF" transform="translate(105 87.00006)">
      <path d="M4.86133 5.50122L0.853516 5.50122L0.853516 6.68872L9.53711 6.68872L9.53711 5.50122L5.59424 5.50122L6.21582 5.20435Q5.71484 4.2395 5.13965 3.29321L3.95215 3.84985Q4.4624 4.74048 4.86133 5.50122ZM41.8408 3.38599L43.4365 3.38599Q42.9727 4.31372 42.4902 5.14868L47.8711 5.14868L47.8711 6.39185L41.7295 6.39185Q40.5234 8.21021 39.1689 9.50903Q38.7607 8.97095 38.2227 8.41431Q40.3936 6.37329 41.8408 3.38599ZM49.9307 3.38599L51.4707 3.38599Q51.0625 4.31372 50.6172 5.14868L56.5547 5.14868L56.5547 6.39185L49.8936 6.39185Q49.3926 7.17114 48.9658 7.74634Q48.2793 7.35669 47.6299 7.07837Q49.0029 5.53833 49.9307 3.38599ZM74.9238 3.38599L73.3838 3.38599L73.3838 18.6565Q73.3838 19.2967 73.0643 19.5972Q72.7726 19.8714 72.2148 19.8625Q71.3242 19.8625 69.6914 19.7141Q69.8584 20.6233 69.9697 21.384Q71.918 21.4026 72.6787 21.4026Q74.9238 21.4026 74.9238 19.0833L74.9238 3.38599ZM29.9102 16.1887L25.1602 16.1887L25.1602 17.302L29.9102 17.302L29.9102 19.2131L31.2832 19.2131L31.2832 17.302L36.8125 17.302L36.8125 16.1887L31.2832 16.1887L31.2832 14.5745L35.959 14.5745L35.959 13.4612L31.2832 13.4612L31.2832 11.8469L34.252 11.8469L34.252 12.3479L35.5879 12.3479L35.5879 9.11938L37.5361 9.11938L37.5361 7.96899L35.5879 7.96899L35.5879 5.24146L31.2832 5.24146L31.2832 3.4231L29.9102 3.4231L29.9102 5.24146L26.0508 5.24146L26.0508 6.35474L29.9102 6.35474L29.9102 7.96899L25.0859 7.96899L25.0859 9.11938L29.9102 9.11938L29.9102 10.7336L26.0508 10.7336L26.0508 11.8469L29.9102 11.8469L29.9102 13.4612L25.791 13.4612L25.791 14.5745L29.9102 14.5745L29.9102 16.1887ZM17.7568 4.18384Q14.5098 4.90747 10.6689 4.94458L10.6689 12.6819Q10.6689 17.803 8.27539 20.4192Q8.81348 21.0315 9.25879 21.6067Q11.9863 18.4338 11.9863 12.7375L11.9863 11.8284L14.7324 11.8284L14.7324 21.551L16.1055 21.551L16.1055 11.8284L18.7588 11.8284L18.7588 10.5667L11.9863 10.5667L11.9863 6.24341Q14.5654 6.09497 18.2393 5.61255L17.7568 4.18384ZM68.2627 11.5129Q66.9639 9.13794 65.4795 6.94849L64.2178 7.57935Q64.8857 8.59058 65.498 9.65747Q62.7612 9.94507 60.1172 10.1399Q61.5366 8.21948 62.9189 5.87231L68.3555 5.87231L68.3555 4.49927L57.7051 4.49927L57.7051 5.87231L61.1655 5.87231Q60.479 7.20825 59.7646 8.28442Q58.9854 9.54614 57.9092 10.1213L58.5771 11.6614Q62.1675 11.2903 66.166 10.9006Q66.5093 11.5686 66.834 12.2551Q67.5576 11.8469 68.2627 11.5129ZM22.3398 16.7732Q21.3379 15.3167 20.7813 13.053L19.5566 13.5168Q20.373 16.4485 21.6162 18.0256Q20.6699 19.4358 19.2783 20.4934Q19.7422 21.1614 20.0391 21.6995Q21.5327 20.5676 22.5811 19.0461Q24.7891 20.9758 28.9268 20.9758Q32.8975 20.9944 37.1465 21.0129Q37.4434 20.3079 37.7588 19.5471Q33.1016 19.7141 29.5762 19.6399Q25.3179 19.6213 23.2954 17.8679Q24.6313 15.3445 24.9746 11.9026L24.9746 10.8079L21.5049 10.8079L24.9932 6.50317L24.9932 5.24146L19.501 5.24146L19.501 6.50317L23.2861 6.50317L19.8721 10.7151L19.8721 12.0696L23.583 12.0696Q23.3325 14.7322 22.3398 16.7732ZM70.8604 5.38989L69.3574 5.38989L69.3574 17.2092L70.8604 17.2092L70.8604 5.38989ZM31.2832 6.35474L34.252 6.35474L34.252 7.96899L31.2832 7.96899L31.2832 6.35474ZM43.7148 9.5647Q42.9355 8.54419 42.1377 7.61646L43.1025 6.89282Q43.9375 7.69067 44.8096 8.69263L43.7148 9.5647ZM52.9365 9.82446Q52.1201 8.89673 50.8584 7.76489L51.749 6.91138Q52.9922 7.95044 53.9199 8.87817L52.9365 9.82446ZM3.24707 9.80591L0.259766 9.80591L0.259766 10.9934L10.0195 10.9934L10.0195 9.80591L7.2085 9.80591Q8.0249 8.83179 8.9248 7.67212L7.60742 6.92993Q6.75391 8.34937 5.74268 9.80591L3.29346 9.80591L4.3418 9.04517Q3.37695 7.69067 2.76465 6.94849L1.7627 7.65356Q2.4585 8.55347 3.24707 9.80591ZM48.8174 7.802L48.4834 8.21021Q51.7861 11.6243 56.7588 12.886Q56.1836 13.6653 55.7568 14.3704Q53.6602 13.6467 51.8418 12.5706L51.8418 13.554L43.1768 13.554L43.1768 12.4778Q41.3027 13.6096 39.1133 14.6116Q38.6494 13.8694 38.1855 13.3313Q43.5107 11.2346 46.999 7.802L48.8174 7.802ZM34.252 10.7336L31.2832 10.7336L31.2832 9.11938L34.252 9.11938L34.252 10.7336ZM47.5557 9.17505Q45.7744 10.845 43.4551 12.2922L51.3779 12.2922Q49.2627 10.9749 47.5557 9.17505ZM4.56445 13.2756L0.779297 13.2756L0.779297 14.4631L4.56445 14.4631L4.56445 19.009Q4.56445 19.9553 3.69238 19.9553Q3.08008 19.9553 2.00391 19.844Q2.13379 20.6418 2.20801 21.2542Q3.20996 21.2727 4.00781 21.2727Q5.90039 21.2727 5.90039 19.3059L5.90039 14.4631L9.53711 14.4631L9.53711 13.2756L5.90039 13.2756L5.90039 11.5129L4.56445 11.5129L4.56445 13.2756ZM62.1953 14.0364L57.835 14.0364L57.835 15.4094L62.1953 15.4094L62.1953 18.8513Q59.644 19.1575 57.2783 19.3987L57.7051 20.9573Q63.0117 20.178 68.2627 19.5286Q68.1885 18.7307 68.1885 18.0813Q65.8691 18.3967 63.6797 18.675L63.6797 15.4094L67.9287 15.4094L67.9287 14.0364L63.6797 14.0364L63.6797 11.7356L62.1953 11.7356L62.1953 14.0364ZM46.1455 14.4817L47.4258 14.1292Q48.1494 16.1516 48.6875 18.2297L47.3145 18.6379Q46.7949 16.3372 46.1455 14.4817ZM39.002 19.5286L49.9307 19.5286Q51.5264 16.8567 52.584 14.426L53.9941 15.1682Q52.7139 17.4133 51.4336 19.5286L56.0352 19.5286L56.0352 20.8459L39.002 20.8459L39.002 19.5286ZM40.8574 15.3538L42.0449 14.7415Q43.1582 16.5598 44.0674 18.4895L42.8057 19.1946Q41.9336 17.1907 40.8574 15.3538ZM3.46973 15.8918L2.20801 15.2981Q1.16895 17.5989 0.259766 19.009Q0.946289 19.343 1.48438 19.677Q2.46777 17.9885 3.46973 15.8918ZM9.37012 17.9885Q8.59082 16.801 7.55176 15.3909L6.45703 16.1145Q7.36621 17.3762 8.18262 18.8049L9.37012 17.9885Z" />
    </g>
  </g>
</svg>