<?xml version="1.0" standalone="no"?><!DOCTYPE svg PUBLIC "-//W3C//DTD SVG 1.1//EN" "http://www.w3.org/Graphics/SVG/1.1/DTD/svg11.dtd"><svg t="1593848342044" class="icon" viewBox="0 0 1024 1024" version="1.1" xmlns="http://www.w3.org/2000/svg" p-id="2474" xmlns:xlink="http://www.w3.org/1999/xlink" width="200" height="200"><defs><style type="text/css"></style></defs><path d="M502.690909 439.156364a205.032727 205.032727 0 1 0-230.4-1.629091 289.978182 289.978182 0 0 0-215.04 279.272727v139.636364A104.96 104.96 0 0 0 162.909091 960.465455h444.509091a104.96 104.96 0 0 0 104.727273-104.727273v-139.636364a290.210909 290.210909 0 0 0-209.454546-276.945454zM388.654545 133.352727a135.447273 135.447273 0 1 1-135.214545 135.447273 135.68 135.68 0 0 1 135.214545-135.447273z m252.741819 721.454546a34.909091 34.909091 0 0 1-34.909091 34.909091H162.909091a34.909091 34.909091 0 0 1-34.909091-34.909091v-139.636364a220.16 220.16 0 0 1 219.927273-219.927273h74.472727a220.16 220.16 0 0 1 219.927273 219.927273z" p-id="2475" fill="#ffffff"></path><path d="M779.403636 423.098182A204.8 204.8 0 0 0 644.654545 63.534545a34.909091 34.909091 0 1 0 0 69.818182 135.447273 135.447273 0 1 1 0 270.661818 34.909091 34.909091 0 0 0 0 69.818182 186.181818 186.181818 0 0 0 23.272728-1.396363 31.185455 31.185455 0 0 0 9.309091 1.396363 220.16 220.16 0 0 1 219.927272 219.927273v139.636364a34.909091 34.909091 0 0 1-34.909091 34.909091 34.909091 34.909091 0 0 0 0 69.818181 104.96 104.96 0 0 0 104.727273-104.727272v-139.636364a289.978182 289.978182 0 0 0-187.578182-270.661818z" p-id="2476" fill="#ffffff"></path></svg>