<?xml version="1.0" standalone="no"?><!DOCTYPE svg PUBLIC "-//W3C//DTD SVG 1.1//EN" "http://www.w3.org/Graphics/SVG/1.1/DTD/svg11.dtd"><svg t="1593848376956" class="icon" viewBox="0 0 1024 1024" version="1.1" xmlns="http://www.w3.org/2000/svg" p-id="2665" xmlns:xlink="http://www.w3.org/1999/xlink" width="200" height="200"><defs><style type="text/css"></style></defs><path d="M447.301818 829.905455H152.436364a33.745455 33.745455 0 0 1-33.978182-33.745455v-325.818182h475.461818a34.909091 34.909091 0 0 0 0-69.818182H118.458182v-56.32a33.745455 33.745455 0 0 1 33.745454-33.745454h555.985455a34.210909 34.210909 0 0 1 33.978182 33.978182v38.167272a34.909091 34.909091 0 0 0 69.818182 0V344.436364a103.796364 103.796364 0 0 0-103.796364-103.796364H267.403636V209.454545a33.745455 33.745455 0 0 1 33.745455-33.745454h555.985454A33.978182 33.978182 0 0 1 891.112727 209.454545v199.912728a34.909091 34.909091 0 0 0 69.818182 0V209.454545a103.796364 103.796364 0 0 0-103.796364-103.796363H301.149091A103.796364 103.796364 0 0 0 197.585455 209.454545v30.72H152.203636a103.796364 103.796364 0 0 0-103.563636 103.563637v452.421818a103.796364 103.796364 0 0 0 103.796364 103.563636h294.865454a34.909091 34.909091 0 0 0 0-69.818181z" p-id="2666" fill="#ffffff"></path><path d="M872.029091 705.629091a133.818182 133.818182 0 1 0-189.207273 0 148.48 148.48 0 0 0-98.443636 147.781818c0 57.018182 83.781818 57.018182 199.447273 57.018182h69.818181c49.105455 0 83.083636-3.025455 102.632728-23.272727a48.64 48.64 0 0 0 14.429091-35.141819c-1.163636-72.145455-35.141818-122.647273-98.676364-146.385454zM777.076364 535.272727a75.869091 75.869091 0 1 1-75.869091 75.869091A75.869091 75.869091 0 0 1 777.076364 535.272727z m44.683636 317.905455h-37.934545a721.454545 721.454545 0 0 1-140.8-7.912727c4.887273-79.592727 74.938182-96.581818 134.050909-96.581819 116.363636 0 133.12 56.087273 134.283636 100.538182a420.538182 420.538182 0 0 1-89.6 4.189091z" p-id="2667" fill="#ffffff"></path></svg>