<?xml version="1.0" standalone="no"?><!DOCTYPE svg PUBLIC "-//W3C//DTD SVG 1.1//EN" "http://www.w3.org/Graphics/SVG/1.1/DTD/svg11.dtd"><svg t="1593847848370" class="icon" viewBox="0 0 1024 1024" version="1.1" xmlns="http://www.w3.org/2000/svg" p-id="1571" xmlns:xlink="http://www.w3.org/1999/xlink" width="200" height="200"><defs><style type="text/css"></style></defs><path d="M471.272727 922.065455H232.727273a40.261818 40.261818 0 0 1-40.96-40.029091v-149.410909A239.709091 239.709091 0 0 1 431.243636 493.381818H512a238.08 238.08 0 0 1 169.192727 69.818182 232.727273 232.727273 0 0 1 23.272728 25.6 34.909091 34.909091 0 0 0 55.854545-42.123636 321.163636 321.163636 0 0 0-28.625455-32.814546 309.76 309.76 0 0 0-137.541818-79.592727 218.065455 218.065455 0 1 0-235.054545-1.629091A309.527273 309.527273 0 0 0 121.949091 732.625455v149.410909A110.08 110.08 0 0 0 232.727273 991.883636h238.545454a34.909091 34.909091 0 0 0 0-69.818181z m4.887273-820.13091a148.247273 148.247273 0 1 1-148.48 148.247273 148.48 148.48 0 0 1 148.48-148.247273z" p-id="1572" fill="#ffffff"></path><path d="M820.130909 711.68h-11.403636A117.992727 117.992727 0 0 0 698.181818 630.458182h-135.68a118.225455 118.225455 0 0 0 0 236.218182h11.636364a117.992727 117.992727 0 0 0 111.709091 81.221818h134.283636a118.225455 118.225455 0 1 0 0-236.218182zM502.690909 748.683636a60.043636 60.043636 0 0 1 59.810909-60.043636H698.181818a59.810909 59.810909 0 0 1 46.545455 23.272727h-58.88a117.992727 117.992727 0 0 0-116.363637 96.814546h-7.447272a59.810909 59.810909 0 0 1-59.345455-60.043637z m250.181818 21.178182A60.043636 60.043636 0 0 1 698.181818 808.494545h-68.189091a60.043636 60.043636 0 0 1 55.854546-38.632727z m67.258182 119.854546h-134.283636a59.578182 59.578182 0 0 1-46.545455-23.272728H698.181818a117.992727 117.992727 0 0 0 116.363637-96.814545h7.214545a60.043636 60.043636 0 1 1 0 119.854545z" p-id="1573" fill="#ffffff"></path></svg>